<svg width="137" height="48" viewBox="0 0 137 48" fill="none" xmlns="http://www.w3.org/2000/svg">
<g clip-path="url(#clip0_39_511)">
<path d="M19.5514 0V8.48347L7.35105 15.5279V27.3762L0 39.1726V11.2837L7.35105 7.04117V7.04441L19.5514 0Z" fill="#C5AB63"/>
<path d="M19.5512 8.4834L19.5204 8.53207V8.53531L0.213989 39.5165H9.27341L9.74228 38.7053L11.2089 36.1662H24.6277L31.333 32.2952V27.1798L19.5512 8.4834ZM19.5512 28.8168H15.4498L19.5366 21.7416L19.5529 21.7691L23.6234 28.8184H19.5529L19.5512 28.8168Z" fill="#C5AB63"/>
<path d="M39.0493 8.4834V10.9592H39.046V36.7454L31.695 40.988L19.5514 47.9999V39.5165L31.3316 32.7154L31.695 32.5061V8.4834H39.0493Z" fill="#C5AB63"/>
<path d="M49.2704 12.8054H48.1688V13.7789H49.2704V12.8054Z" fill="white"/>
<path d="M47.7162 12.8054H46.6146V13.7789H47.7162V12.8054Z" fill="white"/>
<path d="M57.371 12.8136H56.2272V13.787H57.371V12.8136Z" fill="white"/>
<path d="M63.4079 17.8591H59.4801V16.9035C59.4801 16.6018 59.4412 16.3113 59.3649 16.0323C59.2887 15.7532 59.1654 15.5034 58.9982 15.2811C58.8311 15.0589 58.6121 14.8836 58.3444 14.7555C58.0767 14.6273 57.7523 14.564 57.371 14.564C57.0855 14.564 56.8372 14.5932 56.6247 14.6533C56.4105 14.7133 56.2142 14.7993 56.0358 14.9128C55.8557 15.0264 55.6853 15.1692 55.5231 15.3395C55.3771 15.4937 55.2246 15.6705 55.0656 15.8652V14.5624H53.9218V17.8575H49.8155V14.5624H47.8865C47.403 14.5624 47.0039 14.6435 46.6908 14.8058C46.3777 14.968 46.1457 15.2097 45.9948 15.531C45.8439 15.8522 45.7693 16.2529 45.7693 16.7299C45.7693 17.2069 45.8439 17.6044 45.9948 17.9159C46.1457 18.229 46.3777 18.4626 46.6908 18.6168C47.0039 18.7709 47.403 18.8471 47.8865 18.8471H64.5517V14.5608H63.4079V17.8559V17.8591ZM47.3057 17.7829C47.1629 17.7309 47.0623 17.6255 47.0023 17.4632C46.9423 17.301 46.9131 17.0576 46.9131 16.7332C46.9131 16.3908 46.9455 16.1361 47.012 15.969C47.0769 15.8003 47.1808 15.69 47.3235 15.6364C47.4663 15.5829 47.6529 15.5553 47.8865 15.5553H48.6717V17.8607H47.8865C47.6415 17.8607 47.4485 17.8348 47.3057 17.7845V17.7829ZM55.0672 16.9944C55.1759 16.8581 55.2943 16.7169 55.4257 16.5709C55.5847 16.3941 55.7583 16.2286 55.9465 16.0761C56.1347 15.922 56.3375 15.7971 56.5566 15.6997C56.7756 15.6024 57.0076 15.5537 57.2526 15.5537C57.4797 15.5537 57.676 15.5991 57.8366 15.69C57.9989 15.7808 58.1222 15.9252 58.2081 16.1215C58.2941 16.3178 58.3363 16.579 58.3363 16.9019V17.8575H55.0656V16.9911L55.0672 16.9944Z" fill="white"/>
<path d="M64.5517 19.6957H63.408V20.6691H64.5517V19.6957Z" fill="white"/>
<path d="M74.4904 12.8054H73.3888V13.7789H74.4904V12.8054Z" fill="white"/>
<path d="M72.9362 12.8054H71.8346V13.7789H72.9362V12.8054Z" fill="white"/>
<path d="M76.8284 17.8592H74.9675V14.5642H73.0385C72.555 14.5642 72.1559 14.6453 71.8428 14.8075C71.5296 14.9698 71.2976 15.2099 71.1468 15.5295C70.9959 15.8491 70.9196 16.2417 70.9196 16.7073C70.9196 17.173 70.9926 17.564 71.1338 17.8592H67.0778V12.8136H65.9421V18.8505H77.9722V12.8136H76.8284V17.8592ZM72.4495 17.7781C72.3068 17.7246 72.2078 17.6159 72.151 17.4536C72.0942 17.2914 72.065 17.0432 72.065 16.7073C72.065 16.4007 72.0942 16.1622 72.151 15.9951C72.2078 15.8264 72.3084 15.7112 72.4495 15.6495C72.5923 15.5863 72.7886 15.5554 73.0385 15.5554H73.8237V17.8608H73.0385C72.7886 17.8608 72.5923 17.8333 72.4495 17.7797V17.7781Z" fill="white"/>
<path d="M80.4754 12.8136H79.3397V18.8505H80.4754V12.8136Z" fill="white"/>
<path d="M87.0818 19.5416H86.2885V20.3188H87.0818V19.5416Z" fill="white"/>
<path d="M86.6681 14.8074C86.3128 14.6452 85.9007 14.5641 85.4351 14.5641C85.1852 14.5641 84.9257 14.5852 84.658 14.629C84.3903 14.6712 84.1307 14.7247 83.8808 14.7864L83.9831 15.6819C84.2735 15.643 84.5363 15.6105 84.7732 15.5878C85.01 15.5651 85.1982 15.5537 85.341 15.5537C85.7969 15.5537 86.1327 15.643 86.3485 15.8182C86.5643 15.995 86.673 16.253 86.673 16.5953V17.8592H85.7515C85.2842 17.8592 84.8786 17.9354 84.5347 18.0863C84.1907 18.2372 83.923 18.4513 83.7316 18.7304C83.5401 19.0094 83.446 19.3453 83.446 19.7379C83.446 20.1305 83.5418 20.4598 83.7316 20.7405C83.923 21.0228 84.1891 21.237 84.5347 21.3846C84.8786 21.5322 85.281 21.6069 85.7433 21.6069C85.8569 21.6069 85.9705 21.6004 86.0857 21.589C86.1992 21.5777 86.3047 21.5631 86.402 21.5468L86.3339 20.5815C86.2025 20.5929 86.0905 20.6026 85.9964 20.6107C85.9023 20.6188 85.818 20.6237 85.745 20.6237C85.3459 20.6237 85.0554 20.5491 84.8705 20.4014C84.6855 20.2538 84.5931 20.0315 84.5931 19.7363C84.5931 19.441 84.6855 19.2187 84.8705 19.0711C85.0554 18.9234 85.3507 18.8488 85.7547 18.8488H87.8119V16.5953C87.8119 16.1686 87.7113 15.8036 87.5085 15.5018C87.3057 15.2001 87.0266 14.9681 86.6713 14.8058L86.6681 14.8074Z" fill="white"/>
<path d="M97.1746 12.8054H96.073V13.7789H97.1746V12.8054Z" fill="white"/>
<path d="M98.7289 12.8054H97.6273V13.7789H98.7289V12.8054Z" fill="white"/>
<path d="M96.8242 17.8592H91.1977H90.2243V12.8136H89.0886V18.8505H91.1977H97.9598V14.5642H96.8242V17.8592Z" fill="white"/>
<path d="M102.733 12.8054H101.631V13.7789H102.733V12.8054Z" fill="white"/>
<path d="M104.286 12.8054H103.184V13.7789H104.286V12.8054Z" fill="white"/>
<path d="M109.875 17.4843C109.781 17.2847 109.734 17.0722 109.734 16.8435C109.734 16.5936 109.785 16.3713 109.891 16.1783C109.996 15.9852 110.146 15.8327 110.339 15.7208C110.532 15.6104 110.754 15.5537 111.004 15.5537C111.113 15.5537 111.225 15.565 111.341 15.5877C111.458 15.6104 111.577 15.6429 111.695 15.6818L112.037 14.7506C111.867 14.6938 111.687 14.6484 111.499 14.6143C111.311 14.5802 111.132 14.5624 110.96 14.5624C110.64 14.5624 110.339 14.6175 110.052 14.7295C109.764 14.8414 109.513 14.9988 109.296 15.2032C109.08 15.4076 108.908 15.651 108.783 15.9333C108.658 16.2156 108.595 16.5238 108.595 16.8597C108.595 17.1955 108.668 17.5346 108.812 17.8412C108.815 17.8477 108.819 17.8526 108.822 17.8591H104.829V14.564H102.9C102.417 14.564 102.017 14.6451 101.704 14.8074C101.391 14.9696 101.159 15.2113 101.008 15.5326C100.857 15.8538 100.783 16.2545 100.783 16.7315C100.783 17.2085 100.857 17.606 101.008 17.9175C101.159 18.2306 101.391 18.4642 101.704 18.6184C102.017 18.7725 102.417 18.8487 102.9 18.8487H112.112V17.8591H110.12C110.019 17.7423 109.935 17.6173 109.871 17.4827L109.875 17.4843ZM102.322 17.7828C102.18 17.7309 102.079 17.6254 102.019 17.4632C101.959 17.301 101.93 17.0576 101.93 16.7331C101.93 16.3908 101.962 16.1361 102.029 15.969C102.094 15.8003 102.198 15.6899 102.34 15.6364C102.483 15.5829 102.67 15.5553 102.903 15.5553H103.689V17.8607H102.903C102.658 17.8607 102.465 17.8347 102.322 17.7844V17.7828Z" fill="white"/>
<path d="M126.825 19.6957H125.682V20.6691H126.825V19.6957Z" fill="white"/>
<path d="M136.289 15.4514C136.12 15.1334 135.867 14.9014 135.53 14.7603C135.191 14.6175 134.765 14.5461 134.253 14.5461C133.899 14.5461 133.578 14.5721 133.287 14.6224C132.997 14.6743 132.783 14.7246 132.647 14.7765C132.613 14.9079 132.577 15.0799 132.54 15.2924C132.502 15.505 132.47 15.7451 132.441 16.0095C132.411 16.274 132.398 16.5482 132.398 16.8337C132.398 17.1193 132.411 17.3772 132.437 17.6271C132.445 17.7082 132.455 17.7844 132.463 17.8574H128.454V16.5936C128.454 16.1669 128.354 15.8019 128.151 15.5001C127.948 15.1983 127.671 14.9663 127.319 14.8041C126.965 14.6419 126.556 14.5607 126.089 14.5607C125.844 14.5607 125.596 14.5802 125.343 14.6208C125.09 14.6613 124.84 14.71 124.596 14.7668L124.707 15.6721C124.974 15.6315 125.223 15.6023 125.45 15.5828C125.677 15.5634 125.857 15.5536 125.988 15.5536C126.449 15.5536 126.787 15.6429 127.001 15.8181C127.215 15.9949 127.32 16.2529 127.32 16.5952V17.8591H123.128V16.7412C123.128 16.201 123.044 15.771 122.877 15.4514C122.708 15.1334 122.455 14.9014 122.117 14.7603C121.778 14.6175 121.353 14.5461 120.841 14.5461C120.487 14.5461 120.166 14.5721 119.875 14.6224C119.585 14.6743 119.371 14.7246 119.234 14.7765C119.2 14.9079 119.165 15.0799 119.127 15.2924C119.09 15.5066 119.058 15.7451 119.028 16.0095C118.999 16.274 118.986 16.5482 118.986 16.8337C118.986 17.1193 118.999 17.3772 119.025 17.6271C119.033 17.7082 119.043 17.7844 119.051 17.8574H117.185V14.5624H115.256C114.773 14.5624 114.374 14.6435 114.061 14.8057C113.747 14.968 113.515 15.2097 113.365 15.5309C113.214 15.8522 113.139 16.2529 113.139 16.7299C113.139 17.2069 113.214 17.6043 113.365 17.9158C113.515 18.229 113.747 18.4626 114.061 18.6167C114.374 18.7708 114.773 18.8471 115.256 18.8471H116.041V19.0953C116.041 19.3906 115.951 19.6129 115.769 19.7605C115.587 19.9081 115.29 19.9828 114.881 19.9828C114.745 19.9828 114.576 19.9747 114.377 19.9568C114.177 19.9406 113.936 19.9146 113.652 19.8806L113.481 20.794C113.743 20.8443 113.989 20.8864 114.22 20.9173C114.45 20.9481 114.671 20.9643 114.881 20.9643C115.349 20.9643 115.754 20.8897 116.098 20.742C116.442 20.5944 116.71 20.3786 116.901 20.098C117.093 19.8157 117.187 19.4814 117.187 19.0953V18.8471H136.542V16.738C136.542 16.1977 136.458 15.7678 136.291 15.4482L136.289 15.4514ZM115.258 17.8591C115.013 17.8591 114.82 17.8331 114.677 17.7828C114.534 17.7309 114.434 17.6254 114.374 17.4632C114.314 17.301 114.284 17.0576 114.284 16.7331C114.284 16.3908 114.317 16.1361 114.383 15.969C114.448 15.8002 114.552 15.6899 114.695 15.6364C114.838 15.5828 115.024 15.5553 115.258 15.5553H116.043V17.8607H115.258V17.8591ZM120.154 17.4583C120.135 17.2426 120.125 17.0349 120.125 16.8353C120.125 16.6196 120.136 16.3989 120.159 16.1734C120.18 15.9625 120.206 15.7646 120.235 15.5764C120.435 15.552 120.636 15.5374 120.842 15.5374C121.137 15.5374 121.369 15.5731 121.538 15.6445C121.705 15.7159 121.824 15.8376 121.892 16.0112C121.96 16.1848 121.994 16.4249 121.994 16.7331V17.8607H120.198C120.182 17.739 120.167 17.6043 120.154 17.46V17.4583ZM133.567 17.4583C133.547 17.2426 133.537 17.0349 133.537 16.8353C133.537 16.6196 133.549 16.3989 133.571 16.1734C133.592 15.9625 133.618 15.7646 133.648 15.5764C133.847 15.552 134.048 15.5374 134.254 15.5374C134.55 15.5374 134.782 15.5731 134.95 15.6445C135.118 15.7159 135.236 15.8376 135.304 16.0112C135.372 16.1848 135.406 16.4249 135.406 16.7331V17.8607H133.61C133.594 17.739 133.58 17.6043 133.567 17.46V17.4583Z" fill="white"/>
<path d="M50.7077 26.2112H45.967V27.0889H47.8182V31.7971H48.8565V27.0889H50.7077V26.2112Z" fill="white"/>
<path d="M53.0131 26.2112L50.5 31.7954H51.561L52.1159 30.5024H54.9097L55.4629 31.7954H56.5564L54.0352 26.2112H53.0147H53.0131ZM52.4647 29.6896L53.5144 27.2446L54.5608 29.6896H52.4647Z" fill="white"/>
<path d="M57.194 27.0889H59.1798V29.9686C59.1798 30.6549 58.8926 30.9972 58.3183 30.9972C58.0944 30.9972 57.8916 30.9437 57.7083 30.8382C57.525 30.7312 57.3562 30.5722 57.2021 30.3596L56.6116 31.0621C56.803 31.3282 57.0496 31.531 57.3498 31.6689C57.6499 31.8068 57.976 31.8766 58.3264 31.8766C58.9429 31.8766 59.4118 31.7143 59.7314 31.3898C60.051 31.0654 60.21 30.5738 60.21 29.9135V26.2112H57.194V27.0889Z" fill="white"/>
<path d="M67.9568 28.5182H65.0673V26.2112H64.0306V31.7971H65.0673V29.4024H67.9568V31.7971H68.9854V26.2112H67.9568V28.5182Z" fill="white"/>
<path d="M75.3404 26.9413C75.0711 26.6833 74.7548 26.4838 74.3865 26.3426C74.0198 26.2015 73.6207 26.1317 73.1892 26.1317C72.7576 26.1317 72.352 26.2031 71.9837 26.3475C71.6171 26.4903 71.2974 26.6914 71.0265 26.9494C70.7556 27.2074 70.5447 27.5107 70.3954 27.8596C70.2461 28.2084 70.1715 28.5896 70.1715 29.005C70.1715 29.4203 70.2461 29.7934 70.3954 30.1423C70.5447 30.4911 70.7539 30.7945 71.0265 31.0557C71.2974 31.3169 71.6187 31.518 71.9886 31.6624C72.3585 31.8068 72.7592 31.8782 73.1892 31.8782C73.6191 31.8782 74.0182 31.8068 74.3865 31.6673C74.7531 31.5262 75.0711 31.325 75.3404 31.0654C75.6081 30.8042 75.8174 30.5008 75.9667 30.152C76.1159 29.8032 76.1906 29.4219 76.1906 29.0066C76.1906 28.5913 76.1159 28.2084 75.9667 27.8579C75.8174 27.5075 75.6081 27.2025 75.3404 26.9445V26.9413ZM74.9981 29.7934C74.8992 30.0319 74.7629 30.2396 74.5877 30.4164C74.4124 30.5933 74.2064 30.7279 73.9695 30.8237C73.7327 30.9194 73.4731 30.9681 73.1908 30.9681C72.9085 30.9681 72.6473 30.9194 72.4055 30.8237C72.1638 30.7279 71.9545 30.5917 71.7793 30.4132C71.6041 30.2347 71.4662 30.0254 71.364 29.787C71.2634 29.5485 71.2131 29.2873 71.2131 29.005C71.2131 28.7227 71.2634 28.455 71.364 28.2197C71.4646 27.9829 71.6025 27.7752 71.7793 27.5967C71.9545 27.4183 72.1638 27.282 72.4055 27.1863C72.6473 27.0905 72.9101 27.0419 73.1908 27.0419C73.4715 27.0419 73.7327 27.0905 73.9695 27.1863C74.2064 27.282 74.4141 27.4183 74.5925 27.5935C74.771 27.7687 74.9073 27.9764 75.003 28.2165C75.0987 28.455 75.1458 28.7194 75.1458 29.0066C75.1458 29.2937 75.0971 29.5566 74.9981 29.7967V29.7934Z" fill="white"/>
<path d="M78.4083 26.2112H77.3716V31.7971H81.3286V30.9194H78.4083V26.2112Z" fill="white"/>
<path d="M86.2624 26.5584C85.8016 26.3264 85.2744 26.2112 84.6789 26.2112H82.2291V31.7954H84.6789C85.2744 31.7954 85.8033 31.6803 86.2624 31.4483C86.7231 31.2163 87.0801 30.8918 87.3348 30.4716C87.5895 30.0514 87.7177 29.5614 87.7177 29.0033C87.7177 28.4452 87.5895 27.9553 87.3348 27.5351C87.0801 27.1149 86.7215 26.7888 86.2624 26.5584ZM86.423 30.0092C86.2494 30.2964 86.0109 30.5202 85.7059 30.6792C85.3993 30.8382 85.0375 30.9177 84.6173 30.9177H83.2691V27.0889H84.6173C85.0375 27.0889 85.4009 27.1684 85.7059 27.3274C86.0109 27.4864 86.251 27.707 86.423 27.9893C86.5966 28.2716 86.6826 28.6091 86.6826 29.0033C86.6826 29.3976 86.5966 29.722 86.423 30.0092Z" fill="white"/>
<path d="M89.9371 26.2112H88.9004V31.7954H89.9371V26.2112Z" fill="white"/>
<path d="M95.4581 29.9995L92.3788 26.2112H91.5254V31.7971H92.554V28.0088L95.6252 31.7971H96.4802V26.2112H95.4581V29.9995Z" fill="white"/>
<path d="M99.2804 27.5919C99.4605 27.4166 99.6746 27.2804 99.9228 27.1846C100.171 27.0889 100.444 27.0403 100.741 27.0403C101.037 27.0403 101.321 27.0922 101.574 27.196C101.828 27.2998 102.063 27.4604 102.28 27.6795L102.934 27.0419C102.673 26.7434 102.353 26.5178 101.972 26.3637C101.592 26.2096 101.167 26.1317 100.7 26.1317C100.233 26.1317 99.8482 26.2031 99.4832 26.3426C99.1181 26.4838 98.8001 26.6849 98.526 26.9445C98.2518 27.2057 98.0409 27.5091 97.8916 27.8547C97.7424 28.2003 97.6677 28.5831 97.6677 29.0033C97.6677 29.4235 97.7424 29.8064 97.8916 30.152C98.0409 30.4976 98.2502 30.8009 98.5227 31.0622C98.7937 31.3234 99.1117 31.5229 99.4767 31.6641C99.8417 31.8052 100.241 31.875 100.677 31.875C101.076 31.875 101.467 31.8149 101.85 31.6949C102.233 31.5748 102.569 31.398 102.856 31.1644V28.9466H101.883V30.6728C101.769 30.7377 101.654 30.7928 101.536 30.8334C101.278 30.921 101.01 30.9648 100.734 30.9648C100.436 30.9648 100.165 30.9161 99.9196 30.8204C99.6746 30.7247 99.4621 30.5884 99.282 30.4132C99.1003 30.238 98.9608 30.0287 98.8586 29.787C98.758 29.5452 98.7077 29.2824 98.7077 29.0017C98.7077 28.721 98.758 28.4517 98.8586 28.2116C98.9592 27.9731 99.1003 27.7655 99.282 27.5886L99.2804 27.5919Z" fill="white"/>
<path d="M107.801 27.5919C107.981 27.4166 108.195 27.2804 108.444 27.1846C108.692 27.0889 108.964 27.0403 109.261 27.0403C109.558 27.0403 109.842 27.0922 110.095 27.196C110.348 27.2998 110.584 27.4604 110.801 27.6795L111.455 27.0419C111.194 26.7434 110.874 26.5178 110.493 26.3637C110.113 26.2096 109.688 26.1317 109.221 26.1317C108.753 26.1317 108.369 26.2031 108.004 26.3426C107.639 26.4838 107.321 26.6849 107.047 26.9445C106.773 27.2057 106.562 27.5091 106.412 27.8547C106.263 28.2003 106.188 28.5831 106.188 29.0033C106.188 29.4235 106.263 29.8064 106.412 30.152C106.562 30.4976 106.771 30.8009 107.043 31.0622C107.314 31.3234 107.632 31.5229 107.997 31.6641C108.362 31.8052 108.762 31.875 109.198 31.875C109.597 31.875 109.988 31.8149 110.371 31.6949C110.754 31.5748 111.09 31.398 111.377 31.1644V28.9466H110.403V30.6728C110.29 30.7377 110.175 30.7928 110.056 30.8334C109.798 30.921 109.531 30.9648 109.255 30.9648C108.956 30.9648 108.685 30.9161 108.44 30.8204C108.195 30.7247 107.983 30.5884 107.803 30.4132C107.621 30.238 107.482 30.0287 107.379 29.787C107.279 29.5452 107.228 29.2824 107.228 29.0017C107.228 28.721 107.279 28.4517 107.379 28.2116C107.48 27.9731 107.621 27.7655 107.803 27.5886L107.801 27.5919Z" fill="white"/>
<path d="M116.398 29.9297C116.752 29.7707 117.024 29.5435 117.216 29.2515C117.407 28.9595 117.503 28.6074 117.503 28.1986C117.503 27.5821 117.292 27.097 116.869 26.7433C116.445 26.3896 115.863 26.2128 115.118 26.2128H112.829V31.797H113.866V30.1698H115.126C115.201 30.1698 115.271 30.1649 115.342 30.16L116.483 31.797H117.6L116.314 29.9621C116.341 29.9508 116.372 29.9426 116.398 29.9297ZM116.111 27.3809C116.343 27.5756 116.458 27.8481 116.458 28.1986C116.458 28.549 116.343 28.8232 116.111 29.0211C115.879 29.2174 115.535 29.3164 115.078 29.3164H113.864V27.0905H115.078C115.535 27.0905 115.879 27.1878 116.111 27.3809Z" fill="white"/>
<path d="M123.506 26.9413C123.237 26.6833 122.92 26.4838 122.552 26.3426C122.185 26.2015 121.786 26.1317 121.355 26.1317C120.923 26.1317 120.517 26.2031 120.149 26.3475C119.782 26.4903 119.463 26.6914 119.192 26.9494C118.921 27.2074 118.71 27.5107 118.561 27.8596C118.412 28.2084 118.337 28.5896 118.337 29.005C118.337 29.4203 118.412 29.7934 118.561 30.1423C118.71 30.4911 118.919 30.7945 119.192 31.0557C119.463 31.3169 119.784 31.518 120.154 31.6624C120.524 31.8068 120.925 31.8782 121.355 31.8782C121.784 31.8782 122.184 31.8068 122.552 31.6673C122.919 31.5262 123.237 31.325 123.506 31.0654C123.774 30.8042 123.983 30.5008 124.132 30.152C124.281 29.8032 124.356 29.4219 124.356 29.0066C124.356 28.5913 124.281 28.2084 124.132 27.8579C123.983 27.5075 123.774 27.2025 123.506 26.9445V26.9413ZM123.164 29.7934C123.065 30.0319 122.928 30.2396 122.753 30.4164C122.578 30.5933 122.372 30.7279 122.135 30.8237C121.898 30.9194 121.638 30.9681 121.356 30.9681C121.074 30.9681 120.813 30.9194 120.571 30.8237C120.329 30.7279 120.12 30.5917 119.945 30.4132C119.769 30.2347 119.632 30.0254 119.529 29.787C119.429 29.5485 119.378 29.2873 119.378 29.005C119.378 28.7227 119.429 28.455 119.529 28.2197C119.63 27.9829 119.768 27.7752 119.945 27.5967C120.12 27.4183 120.329 27.282 120.571 27.1863C120.813 27.0905 121.076 27.0419 121.356 27.0419C121.637 27.0419 121.898 27.0905 122.135 27.1863C122.372 27.282 122.579 27.4183 122.758 27.5935C122.936 27.7687 123.073 27.9764 123.168 28.2165C123.264 28.455 123.311 28.7194 123.311 29.0066C123.311 29.2937 123.262 29.5566 123.164 29.7967V29.7934Z" fill="white"/>
<path d="M129.358 29.3229C129.358 29.8973 129.236 30.3158 128.991 30.5754C128.746 30.8366 128.397 30.9664 127.946 30.9664C127.495 30.9664 127.145 30.8366 126.897 30.5754C126.65 30.3142 126.525 29.8973 126.525 29.3229V26.2112H125.489V29.3554C125.489 30.1747 125.706 30.7993 126.139 31.2309C126.572 31.6608 127.169 31.8766 127.93 31.8766C128.691 31.8766 129.296 31.6608 129.729 31.2309C130.163 30.7993 130.38 30.1747 130.38 29.3554V26.2112H129.358V29.3229Z" fill="white"/>
<path d="M136.3 27.1295C136.109 26.8309 135.836 26.6038 135.482 26.4464C135.129 26.2891 134.705 26.2112 134.21 26.2112H131.913V31.7954H132.95V30.1844H134.21C134.705 30.1844 135.129 30.1033 135.482 29.9411C135.836 29.7788 136.109 29.5501 136.3 29.2548C136.491 28.9595 136.587 28.6075 136.587 28.197C136.587 27.7865 136.491 27.4264 136.3 27.1278V27.1295ZM135.195 29.0163C134.963 29.211 134.619 29.3067 134.162 29.3067H132.948V27.0889H134.162C134.619 27.0889 134.963 27.1862 135.195 27.3793C135.427 27.574 135.542 27.8466 135.542 28.197C135.542 28.5474 135.427 28.8216 135.195 29.0147V29.0163Z" fill="white"/>
</g>
<defs>
<clipPath id="clip0_39_511">
<rect width="136.587" height="48" fill="white"/>
</clipPath>
</defs>
</svg>
