<svg width="153" height="189" viewBox="0 0 153 189" fill="none" xmlns="http://www.w3.org/2000/svg">
<path d="M76.6049 0V33.2393L28.8023 60.8402V107.263L0 153.483V44.211L28.8023 27.5882V27.6009L76.6049 0Z" fill="white"/>
<path d="M76.6049 33.2393L76.4841 33.43V33.4427L0.839111 154.831H36.3351L38.1722 151.652L43.9186 141.704H96.4951L122.767 126.537V106.494L76.6049 33.2393ZM76.6049 112.908H60.5351L76.5477 85.1864L76.6113 85.2945L92.5603 112.914H76.6113L76.6049 112.908Z" fill="white"/>
<path d="M153 33.2393V42.9396H152.987V143.973L124.185 160.596L76.605 188.07V154.831L122.761 128.183L124.185 127.363V33.2393H153Z" fill="white"/>
</svg>
