<svg preserveAspectRatio="none" width="100%" height="100%" overflow="visible" style="display: block;" viewBox="0 0 20 20" fill="none" xmlns="http://www.w3.org/2000/svg">
<g id="material-symbols-light:menu-rounded">
<path id="Vector" d="M3.75001 14.3917C3.63167 14.3917 3.53278 14.3514 3.45334 14.2708C3.37389 14.1903 3.33389 14.0911 3.33334 13.9733C3.33278 13.8556 3.37278 13.7567 3.45334 13.6767C3.53389 13.5967 3.63278 13.557 3.75001 13.5575H16.25C16.3683 13.5575 16.4672 13.5975 16.5467 13.6775C16.6267 13.7575 16.6667 13.8567 16.6667 13.975C16.6667 14.0933 16.6267 14.1922 16.5467 14.2717C16.4667 14.3511 16.3678 14.3908 16.25 14.3908L3.75001 14.3917ZM3.75001 10.4167C3.63167 10.4167 3.53278 10.3767 3.45334 10.2967C3.37389 10.2167 3.33389 10.1175 3.33334 9.99918C3.33278 9.88085 3.37278 9.78196 3.45334 9.70251C3.53389 9.62307 3.63278 9.58335 3.75001 9.58335H16.25C16.3683 9.58335 16.4672 9.62335 16.5467 9.70335C16.6261 9.78335 16.6661 9.88252 16.6667 10.0008C16.6672 10.1192 16.6272 10.2181 16.5467 10.2975C16.4661 10.377 16.3672 10.4167 16.25 10.4167H3.75001ZM3.75001 6.44168C3.63167 6.44168 3.53278 6.40196 3.45334 6.32252C3.37334 6.24252 3.33334 6.14335 3.33334 6.02502C3.33334 5.90668 3.37334 5.80779 3.45334 5.72835C3.53334 5.6489 3.63223 5.60918 3.75001 5.60918H16.25C16.3683 5.60918 16.4672 5.64918 16.5467 5.72918C16.6261 5.80918 16.6661 5.90779 16.6667 6.02502C16.6672 6.14224 16.6272 6.24113 16.5467 6.32168C16.4661 6.40224 16.3672 6.44224 16.25 6.44168H3.75001Z" fill="var(--fill-0, white)"/>
</g>
</svg>
