<svg preserveAspectRatio="none" width="100%" height="100%" overflow="visible" style="display: block;" viewBox="0 0 24 24" fill="none" xmlns="http://www.w3.org/2000/svg">
<g id="lineicons:scroll-down-2">
<path id="Vector" d="M11.47 16.278C11.6106 16.4185 11.8012 16.4973 12 16.4973C12.1988 16.4973 12.3894 16.4185 12.53 16.278L14.78 14.029C14.9125 13.8868 14.9846 13.6988 14.9812 13.5045C14.9777 13.3102 14.899 13.1248 14.7616 12.9874C14.6242 12.85 14.4388 12.7713 14.2445 12.7678C14.0502 12.7644 13.8622 12.8365 13.72 12.969L12 14.686L10.28 12.967C10.2108 12.8954 10.128 12.8383 10.0365 12.799C9.94495 12.7598 9.84653 12.7391 9.74694 12.7383C9.64736 12.7375 9.54861 12.7565 9.45646 12.7943C9.3643 12.832 9.28059 12.8878 9.2102 12.9582C9.13982 13.0287 9.08417 13.1124 9.0465 13.2046C9.00883 13.2968 8.9899 13.3956 8.99081 13.4952C8.99173 13.5947 9.01246 13.6931 9.05181 13.7846C9.09116 13.8761 9.14834 13.9588 9.22 14.028L11.47 16.278ZM12 9.055C11.7878 9.055 11.5843 8.97071 11.4343 8.82069C11.2843 8.67066 11.2 8.46717 11.2 8.255C11.2 8.04283 11.2843 7.83934 11.4343 7.68931C11.5843 7.53929 11.7878 7.455 12 7.455C12.2122 7.455 12.4157 7.53929 12.5657 7.68931C12.7157 7.83934 12.8 8.04283 12.8 8.255C12.8 8.46717 12.7157 8.67066 12.5657 8.82069C12.4157 8.97071 12.2122 9.055 12 9.055ZM11.2 11.071C11.2 11.1761 11.2207 11.2801 11.2609 11.3771C11.3011 11.4742 11.36 11.5624 11.4343 11.6367C11.5086 11.711 11.5968 11.7699 11.6939 11.8101C11.7909 11.8503 11.8949 11.871 12 11.871C12.1051 11.871 12.2091 11.8503 12.3061 11.8101C12.4032 11.7699 12.4914 11.711 12.5657 11.6367C12.64 11.5624 12.6989 11.4742 12.7391 11.3771C12.7793 11.2801 12.8 11.1761 12.8 11.071C12.8 10.8588 12.7157 10.6553 12.5657 10.5053C12.4157 10.3553 12.2122 10.271 12 10.271C11.7878 10.271 11.5843 10.3553 11.4343 10.5053C11.2843 10.6553 11.2 10.8588 11.2 11.071Z" fill="var(--fill-0, white)"/>
<path id="Vector_2" fill-rule="evenodd" clip-rule="evenodd" d="M12 2.001C10.0109 2.001 8.10322 2.79118 6.6967 4.1977C5.29018 5.60422 4.5 7.51188 4.5 9.501V14.501C4.5 16.4901 5.29018 18.3978 6.6967 19.8043C8.10322 21.2108 10.0109 22.001 12 22.001C13.9891 22.001 15.8968 21.2108 17.3033 19.8043C18.7098 18.3978 19.5 16.4901 19.5 14.501V9.501C19.5 7.51188 18.7098 5.60422 17.3033 4.1977C15.8968 2.79118 13.9891 2.001 12 2.001ZM6 9.501C6 7.9097 6.63214 6.38358 7.75736 5.25836C8.88258 4.13314 10.4087 3.501 12 3.501C13.5913 3.501 15.1174 4.13314 16.2426 5.25836C17.3679 6.38358 18 7.9097 18 9.501V14.501C18 16.0923 17.3679 17.6184 16.2426 18.7436C15.1174 19.8689 13.5913 20.501 12 20.501C10.4087 20.501 8.88258 19.8689 7.75736 18.7436C6.63214 17.6184 6 16.0923 6 14.501V9.501Z" fill="var(--fill-0, white)"/>
</g>
</svg>
